<?xml version="1.0" standalone="no"?>
<!DOCTYPE svg PUBLIC "-//W3C//DTD SVG 20010904//EN"
 "http://www.w3.org/TR/2001/REC-SVG-20010904/DTD/svg10.dtd">
<svg version="1.0" xmlns="http://www.w3.org/2000/svg"
 width="1400.000000pt" height="788.000000pt" viewBox="0 0 1400.000000 788.000000"
 preserveAspectRatio="xMidYMid meet" fill="#FFF">

<g transform="translate(0.000000,788.000000) scale(0.100000,-0.100000)"
fill="#000000" stroke="none">
<path d="M1760 3940 l0 -1380 237 0 236 0 -7 763 c-3 419 -10 807 -15 862 -5
55 -8 101 -7 102 2 2 215 -531 597 -1495 l93 -232 223 2 224 3 205 515 c410
1026 495 1234 489 1200 -14 -83 -24 -558 -25 -1117 l0 -603 235 0 235 0 0
1380 0 1380 -237 -2 -237 -3 -57 -140 c-32 -77 -141 -345 -242 -595 -102 -250
-268 -662 -371 -915 -102 -253 -194 -477 -203 -498 l-18 -37 -44 107 c-24 60
-83 205 -131 323 -48 118 -122 301 -165 405 -42 105 -102 251 -132 325 -88
217 -352 868 -385 953 l-31 77 -234 0 -233 0 0 -1380z"/>
<path d="M7626 5298 c3 -13 54 -147 111 -298 58 -151 162 -428 233 -615 70
-187 212 -563 315 -835 103 -272 229 -605 280 -740 l92 -245 251 -3 250 -2 10
27 c9 27 660 1774 896 2408 64 171 116 313 116 318 0 4 -112 7 -249 7 l-249 0
-10 -27 c-5 -16 -144 -383 -307 -818 -294 -783 -385 -1035 -425 -1183 -12 -42
-24 -84 -27 -92 -3 -8 -20 37 -37 100 -64 228 -49 186 -639 1740 l-104 275
-257 3 -257 2 7 -22z"/>
<path d="M10530 3940 l0 -1380 855 0 855 0 0 225 0 225 -615 0 -615 0 0 365 0
365 550 0 550 0 0 205 c0 113 1 207 3 211 1 3 -245 6 -548 7 l-550 2 -3 353
-2 352 615 0 615 0 0 225 0 225 -855 0 -855 0 0 -1380z"/>
<path d="M6035 5250 c-330 -47 -629 -220 -834 -483 -13 -17 18 -17 682 -15
l695 3 80 78 c62 59 86 77 108 77 23 0 44 -16 101 -77 l72 -78 141 -3 c96 -2
140 0 140 7 0 6 -48 60 -107 119 -187 186 -382 295 -633 353 -97 23 -347 33
-445 19z"/>
<path d="M6376 4504 c-34 -37 -75 -73 -93 -80 -26 -11 -153 -14 -656 -14
l-624 0 -21 -77 c-19 -71 -42 -189 -42 -220 0 -10 126 -13 595 -13 l595 0 71
75 c64 67 76 75 109 75 33 0 45 -8 107 -75 l71 -75 491 0 491 0 0 24 c0 33
-25 160 -45 229 l-16 57 -382 0 -381 0 -78 80 c-99 103 -109 104 -192 14z"/>
<path d="M5909 3835 l-76 -75 -438 0 -438 0 7 -38 c7 -46 46 -168 75 -234 l20
-48 307 0 308 0 70 74 c39 40 81 76 93 80 32 10 59 -8 133 -86 l65 -68 657 0
658 0 19 38 c25 50 81 226 81 257 l0 25 -632 0 -632 0 -71 75 c-93 100 -104
100 -206 0z"/>
<path d="M5422 3216 c-64 -69 -88 -86 -124 -86 -20 -1 -12 -11 48 -69 164
-157 377 -266 624 -317 105 -22 341 -25 450 -5 164 29 354 105 490 196 73 49
220 173 220 186 0 5 -321 9 -722 9 l-722 0 -71 75 c-93 99 -109 100 -193 11z"/>
</g>
</svg>
